<svg xmlns="http://www.w3.org/2000/svg" width="12.246" height="7.866" viewBox="0 0 12.246 7.866">
  <path id="Path_5" data-name="Path 5" d="M4.17-1.414l.537-.537a.328.328,0,0,0,.1-.235.328.328,0,0,0-.1-.235L2.494-4.539h9.428a.328.328,0,0,0,.328-.328v-.766a.328.328,0,0,0-.328-.328H2.494L4.7-8.081a.328.328,0,0,0,.1-.234.328.328,0,0,0-.1-.234l-.537-.537a.328.328,0,0,0-.464,0L.1-5.482a.328.328,0,0,0,0,.464l3.6,3.6a.328.328,0,0,0,.234.1.328.328,0,0,0,.236-.1Z" transform="translate(-0.004 9.183)" fill="#fff"/>
</svg>
