<svg xmlns="http://www.w3.org/2000/svg" width="13.714" height="13.714" viewBox="0 0 13.714 13.714">
  <path id="Path_143" data-name="Path 143" d="M10.455-6.455,6.688-2.687a.549.549,0,0,1-.4.17.549.549,0,0,1-.4-.17L3.259-5.312a.549.549,0,0,1-.17-.4.549.549,0,0,1,.17-.4l.911-.911a.549.549,0,0,1,.4-.17.549.549,0,0,1,.4.17L6.286-5.714,8.741-8.17a.549.549,0,0,1,.4-.17.549.549,0,0,1,.4.17l.911.911a.549.549,0,0,1,.17.4A.549.549,0,0,1,10.455-6.455Zm.607,3.179a4.748,4.748,0,0,0,.652-2.438,4.748,4.748,0,0,0-.652-2.437A4.842,4.842,0,0,0,9.295-9.92a4.748,4.748,0,0,0-2.437-.652A4.748,4.748,0,0,0,4.42-9.92,4.842,4.842,0,0,0,2.652-8.152,4.748,4.748,0,0,0,2-5.714a4.748,4.748,0,0,0,.652,2.438A4.842,4.842,0,0,0,4.42-1.509a4.748,4.748,0,0,0,2.438.652,4.748,4.748,0,0,0,2.437-.652A4.842,4.842,0,0,0,11.063-3.277Zm1.732-5.875a6.684,6.684,0,0,1,.92,3.438,6.708,6.708,0,0,1-.92,3.442,6.826,6.826,0,0,1-2.5,2.5,6.708,6.708,0,0,1-3.442.92A6.708,6.708,0,0,1,3.415.223a6.826,6.826,0,0,1-2.5-2.5A6.708,6.708,0,0,1,0-5.714,6.708,6.708,0,0,1,.92-9.156a6.826,6.826,0,0,1,2.5-2.5,6.708,6.708,0,0,1,3.442-.92,6.708,6.708,0,0,1,3.442.92A6.816,6.816,0,0,1,12.795-9.152Z" transform="translate(0 12.571)" fill="#f3704b"/>
</svg>
